<svg version="1" xmlns="http://www.w3.org/2000/svg" width="682.667" height="682.667" viewBox="0 0 512.000000 512.000000"><path d="M73 197.5v159.6l56.8-.4c60.9-.4 60.3-.4 76.7-6 13.1-4.5 25.4-11.7 34.1-19.9l5.4-5.1V476h51.8c56.2 0 63.2-.5 79.2-5.6 34.6-10.9 58.8-37.2 64-69.6 1.6-9.9.8-32.1-1.5-40.3-5.6-20-19.4-36.2-39-45.6-7.8-3.8-21.5-7.9-26.2-7.9-3.9 0-2.6-1.5 3.5-4 23.4-9.5 40-28.3 46.2-52.5 2.6-10.2 2.9-28 .5-38.1-4.8-20.9-21.1-38.8-43.8-47.9-16.8-6.8-17.3-6.8-78.9-7.2l-55.8-.4v51.3l-4.1-3.6c-8.2-7-25.3-14.4-37.5-16.1-2.7-.4-5.3-1-5.8-1.2-.4-.3 2.1-1.7 5.7-3.2 11.2-4.6 19.4-10.1 27.5-18.6 9.2-9.6 13.4-16.4 17.5-28.2 2.7-7.8 3.1-10.5 3.5-22.8.5-16.5-.7-22.6-6.8-35.1-9.1-18.6-27.3-32-52.2-38.6-8-2.1-10.6-2.2-64.5-2.5L73 37.9v159.6zM179.5 74.4c18.8 5.4 29 14.6 33.1 30.1 1.8 6.7 1.7 21.5-.1 29.4-4.5 19.1-20.3 33.5-42.5 38.7-5.8 1.3-13.4 1.8-33.7 2.2l-26.3.4V71.9l31.8.3c26.1.4 32.8.7 37.7 2.2zm166 117.6c21.2 3.4 34.6 13.2 39.6 29 2.5 8 2.7 23.7.4 32.3-5 19-18.9 32.1-40.2 37.9-6.7 1.8-11.5 2.1-35 2.5l-27.3.5V191h28.3c15.5 0 30.9.4 34.2 1zm-178.2 17.1c14.9 1.3 25.1 3.8 35.5 8.9 17.9 8.9 27.2 24.8 27.2 47 0 29.1-17.5 49.9-47 56-8.3 1.7-13.7 2-41.2 2H110V208h22.8c12.5 0 28 .5 34.5 1.1zm175.5 119c40.9 4.4 60.2 22.3 60.2 55.8 0 11.4-1.3 17.8-5.6 26.8-4.7 9.9-13 18-23.7 23.3-14.6 7.1-16 7.3-55.4 7.8l-35.3.4V327h25c13.8 0 29.4.5 34.8 1.1z"/></svg>